<svg width="213" height="213" viewBox="0 0 213 213" fill="none" xmlns="http://www.w3.org/2000/svg">
<circle cx="106.5" cy="106.5" r="106.5" fill="#F7DD80"/>
<path d="M59.182 99.8426L50.5582 102.153L49.8602 106.689L47.4724 107.328L50.473 89.1317L52.7681 88.5167L64.4882 102.769L62.054 103.421L59.182 99.8426ZM57.8737 98.2054L52.2425 91.1919L50.8726 100.081L57.8737 98.2054ZM62.5607 85.8928L69.3995 84.0603C71.115 83.6007 72.7284 83.5328 74.2397 83.8566C75.751 84.1805 77.0355 84.8633 78.0932 85.9051C79.1622 86.9272 79.9099 88.2342 80.3365 89.8261C80.763 91.4179 80.771 92.9314 80.3604 94.3666C79.9612 95.7822 79.1881 97.008 78.0412 98.0442C76.8943 99.0803 75.4631 99.8282 73.7477 100.288L66.9089 102.12L62.5607 85.8928ZM73.0682 98.3083C74.3818 97.9563 75.4649 97.3928 76.3173 96.6177C77.1852 95.8386 77.7675 94.9206 78.0641 93.8638C78.3565 92.7916 78.3412 91.6527 78.0182 90.4473C77.6952 89.2418 77.1411 88.2556 76.3559 87.4887C75.5665 86.7063 74.6012 86.1948 73.46 85.9539C72.3342 85.7089 71.1145 85.7624 69.8008 86.1144L65.4194 87.2884L68.6867 99.4823L73.0682 98.3083ZM103.173 93.9935C102.814 94.7525 102.329 95.3874 101.721 95.8983C101.112 96.4092 100.406 96.7723 99.6026 96.9877C98.5826 97.261 97.5581 97.2705 96.5292 97.0161C95.5199 96.773 94.2861 96.2174 92.8277 95.3493C91.277 95.682 89.7841 95.6431 88.3489 95.2325C86.9292 94.8179 85.708 94.0932 84.6854 93.0586C83.6741 92.0045 82.9676 90.7278 82.5659 89.2287C82.1477 87.6678 82.1397 86.1543 82.5419 84.6882C82.9597 83.218 83.7301 81.9514 84.8533 80.8885C85.9723 79.8101 87.3509 79.0515 88.9891 78.6125C90.6119 78.1777 92.1774 78.1475 93.6857 78.5219C95.1899 78.8808 96.4826 79.5945 97.564 80.663C98.6413 81.7161 99.3911 83.0308 99.8135 84.6072C100.17 85.9363 100.226 87.2297 99.9836 88.4874C99.7563 89.741 99.2572 90.8768 98.4865 91.895C97.7312 92.909 96.767 93.7306 95.5938 94.3597C96.288 94.7866 96.9155 95.0574 97.4763 95.1721C98.0567 95.2982 98.6096 95.2909 99.1351 95.1501C100.279 94.8436 101.144 94.1149 101.73 92.964L103.173 93.9935ZM84.8842 88.6075C85.1989 89.7821 85.7551 90.776 86.5527 91.5893C87.3617 92.3829 88.3178 92.9219 89.4209 93.206C90.5395 93.4861 91.6938 93.4666 92.8838 93.1478C94.0584 92.833 95.0523 92.2769 95.8656 91.4792C96.6788 90.6815 97.2296 89.7388 97.5179 88.6512C97.8176 87.5439 97.81 86.403 97.4953 85.2284C97.1806 84.0538 96.6187 83.0697 95.8097 82.2761C95.0121 81.4628 94.0617 80.9141 92.9585 80.6299C91.8554 80.3457 90.7165 80.361 89.542 80.6757C88.3519 80.9946 87.3426 81.5549 86.5139 82.3567C85.7006 83.1544 85.1442 84.1069 84.8445 85.2142C84.5562 86.3018 84.5694 87.433 84.8842 88.6075ZM112.303 90.1557C110.14 90.7354 108.289 90.5686 106.753 89.6552C105.216 88.7419 104.137 87.1261 103.516 84.8078L101.044 75.5813L103.362 74.9601L105.809 84.0939C106.741 87.5713 108.729 88.902 111.774 88.0862C113.257 87.6887 114.279 86.9593 114.84 85.8981C115.396 84.8214 115.438 83.4022 114.966 81.6403L112.519 72.5065L114.767 71.904L117.24 81.1305C117.865 83.4642 117.741 85.4107 116.866 86.9701C115.988 88.5141 114.467 89.5759 112.303 90.1557ZM119.52 70.6305L121.838 70.0094L126.187 86.2369L123.868 86.8581L119.52 70.6305ZM141.894 82.0281L137.058 77.9819C136.634 78.1287 136.298 78.2353 136.051 78.3015L132.04 79.3762L133.363 84.314L131.045 84.9351L126.697 68.7076L133.025 67.0118C135.127 66.4486 136.916 66.5078 138.39 67.1893C139.865 67.8709 140.838 69.0926 141.31 70.8545C141.646 72.1063 141.622 73.2555 141.24 74.3021C140.858 75.3486 140.149 76.2261 139.113 76.9343L144.421 81.351L141.894 82.0281ZM135.453 76.3497C136.921 75.9563 137.957 75.3392 138.56 74.4985C139.163 73.6578 139.307 72.6502 138.992 71.4756C138.677 70.3011 138.051 69.5082 137.112 69.0971C136.17 68.6705 134.965 68.6539 133.496 69.0473L129.555 70.1033L131.512 77.4057L135.453 76.3497ZM157.14 73.5947L148.517 75.9054L147.819 80.4406L145.431 81.0804L148.431 62.8838L150.727 62.2688L162.447 76.5211L160.013 77.1733L157.14 73.5947ZM155.832 71.9575L150.201 64.944L148.831 73.8334L155.832 71.9575ZM41.8652 124.567L44.1834 123.946L48.5316 140.173L46.2133 140.795L41.8652 124.567ZM62.9974 118.905L67.3456 135.132L65.4446 135.642L52.4656 126.149L55.7081 138.25L53.3899 138.872L49.0417 122.644L50.9426 122.135L63.9217 131.627L60.6792 119.526L62.9974 118.905ZM81.2472 122.612L83.4727 122.015L85.1685 128.344C84.5429 129.224 83.7446 129.984 82.7734 130.626C81.8023 131.267 80.7372 131.743 79.5781 132.053C77.9398 132.492 76.3687 132.532 74.8645 132.173C73.3562 131.799 72.0557 131.087 70.963 130.038C69.8816 128.97 69.1297 127.647 68.7073 126.071C68.2849 124.495 68.2749 122.973 68.6771 121.507C69.0948 120.037 69.8653 118.77 70.9884 117.708C72.1271 116.641 73.5232 115.885 75.1769 115.442C76.4751 115.094 77.7076 114.996 78.8745 115.147C80.0527 115.279 81.1224 115.655 82.0838 116.275L81.0316 118.098C79.3979 117.194 77.6616 116.988 75.8224 117.481C74.5861 117.812 73.5458 118.381 72.7016 119.187C71.8688 119.973 71.3025 120.92 71.0029 122.027C70.6991 123.119 70.7067 124.26 71.0255 125.45C71.3403 126.624 71.9042 127.616 72.7173 128.425C73.5263 129.219 74.4901 129.756 75.6087 130.036C76.7427 130.312 77.9202 130.286 79.1411 129.959C80.5939 129.57 81.768 128.882 82.6635 127.897L81.2472 122.612ZM100.959 126.125L96.1234 122.079C95.6989 122.226 95.3631 122.333 95.1158 122.399L91.1053 123.473L92.4284 128.411L90.1101 129.032L85.762 112.805L92.0907 111.109C94.1926 110.546 95.9808 110.605 97.4555 111.287C98.9301 111.968 99.9035 113.19 100.376 114.952C100.711 116.204 100.688 117.353 100.305 118.399C99.9233 119.446 99.2143 120.323 98.1783 121.032L103.486 125.448L100.959 126.125ZM94.5183 120.447C95.9865 120.054 97.0221 119.436 97.625 118.596C98.228 117.755 98.3721 116.747 98.0574 115.573C97.7426 114.398 97.1161 113.605 96.1777 113.194C95.2352 112.768 94.0298 112.751 92.5616 113.145L88.6206 114.201L90.5773 121.503L94.5183 120.447ZM118.19 119.347L118.73 121.364L106.953 124.519L102.605 108.292L114.057 105.223L114.598 107.24L105.464 109.687L106.799 114.672L114.936 112.491L115.464 114.462L107.327 116.642L108.731 121.881L118.19 119.347ZM127.263 119.276C126.042 119.603 124.81 119.735 123.567 119.67C122.335 119.586 121.314 119.33 120.503 118.901L120.876 116.863C121.644 117.254 122.554 117.498 123.607 117.597C124.672 117.676 125.715 117.579 126.735 117.306C128.079 116.945 129.024 116.452 129.568 115.826C130.108 115.184 130.277 114.485 130.074 113.727C129.925 113.171 129.62 112.773 129.158 112.532C128.707 112.272 128.186 112.121 127.596 112.081C127.021 112.036 126.215 112.028 125.179 112.057C123.88 112.091 122.812 112.062 121.976 111.972C121.155 111.877 120.394 111.6 119.692 111.143C119 110.665 118.516 109.909 118.239 108.873C118.007 108.008 118.022 107.167 118.284 106.352C118.561 105.532 119.107 104.789 119.923 104.124C120.738 103.458 121.834 102.941 123.209 102.572C124.167 102.315 125.143 102.186 126.137 102.185C127.13 102.184 128.021 102.326 128.81 102.612L128.542 104.671C127.746 104.421 126.933 104.291 126.102 104.282C125.267 104.257 124.479 104.344 123.737 104.543C122.423 104.895 121.499 105.399 120.962 106.056C120.442 106.709 120.283 107.415 120.486 108.172C120.635 108.728 120.942 109.134 121.409 109.39C121.871 109.631 122.399 109.779 122.994 109.835C123.6 109.872 124.403 109.872 125.404 109.836C126.703 109.802 127.764 109.833 128.584 109.928C129.405 110.023 130.158 110.301 130.845 110.763C131.548 111.221 132.036 111.96 132.309 112.98C132.537 113.83 132.514 114.672 132.241 115.507C131.963 116.327 131.409 117.072 130.578 117.742C129.743 118.396 128.638 118.908 127.263 119.276ZM141.661 115.418C140.44 115.745 139.208 115.877 137.965 115.812C136.733 115.728 135.712 115.472 134.901 115.043L135.275 113.005C136.042 113.396 136.952 113.64 138.006 113.739C139.071 113.818 140.113 113.721 141.133 113.448C142.478 113.087 143.422 112.594 143.967 111.968C144.507 111.326 144.676 110.627 144.473 109.869C144.324 109.313 144.018 108.915 143.556 108.674C143.105 108.414 142.585 108.263 141.994 108.223C141.419 108.178 140.613 108.17 139.578 108.199C138.278 108.233 137.21 108.204 136.374 108.114C135.554 108.019 134.792 107.742 134.09 107.285C133.399 106.807 132.914 106.051 132.637 105.015C132.405 104.15 132.42 103.309 132.682 102.494C132.959 101.674 133.506 100.931 134.321 100.266C135.137 99.5998 136.232 99.0827 137.607 98.7141C138.566 98.4574 139.542 98.3284 140.535 98.3272C141.529 98.326 142.42 98.4682 143.209 98.7538L142.941 100.813C142.145 100.563 141.331 100.433 140.501 100.424C139.666 100.399 138.877 100.486 138.135 100.685C136.822 101.037 135.897 101.541 135.361 102.198C134.84 102.851 134.681 103.557 134.884 104.314C135.033 104.87 135.341 105.276 135.807 105.532C136.269 105.773 136.797 105.921 137.392 105.977C137.998 106.014 138.801 106.014 139.802 105.978C141.102 105.944 142.162 105.975 142.982 106.07C143.803 106.164 144.557 106.443 145.244 106.905C145.946 107.363 146.434 108.102 146.707 109.122C146.935 109.972 146.912 110.814 146.639 111.649C146.362 112.469 145.808 113.214 144.977 113.884C144.142 114.538 143.036 115.05 141.661 115.418ZM158.656 110.864C157.017 111.303 155.446 111.343 153.942 110.984C152.434 110.61 151.131 109.891 150.034 108.826C148.953 107.758 148.203 106.443 147.785 104.882C147.367 103.321 147.359 101.808 147.761 100.342C148.179 98.8714 148.949 97.6049 150.072 96.542C151.191 95.4636 152.57 94.7049 154.208 94.266C155.831 93.8312 157.396 93.8009 158.905 94.1753C160.409 94.5343 161.702 95.248 162.783 96.3165C163.86 97.3696 164.61 98.6843 165.033 100.261C165.455 101.837 165.465 103.358 165.063 104.824C164.656 106.275 163.894 107.539 162.775 108.618C161.651 109.681 160.278 110.43 158.656 110.864ZM158.103 108.801C159.293 108.482 160.287 107.926 161.085 107.133C161.898 106.335 162.449 105.392 162.737 104.305C163.037 103.197 163.029 102.056 162.714 100.882C162.4 99.7073 161.838 98.7232 161.029 97.9295C160.231 97.1162 159.281 96.5675 158.178 96.2834C157.09 95.9951 155.951 96.0103 154.761 96.3292C153.571 96.6481 152.562 97.2084 151.733 98.0102C150.92 98.8079 150.363 99.7603 150.064 100.868C149.775 101.955 149.788 103.086 150.103 104.261C150.418 105.436 150.974 106.429 151.772 107.243C152.581 108.036 153.537 108.575 154.64 108.859C155.759 109.14 156.913 109.12 158.103 108.801ZM175.529 106.343C174.308 106.67 173.076 106.802 171.833 106.737C170.601 106.653 169.58 106.397 168.769 105.968L169.142 103.93C169.91 104.321 170.82 104.565 171.874 104.664C172.938 104.743 173.981 104.646 175.001 104.373C176.345 104.013 177.29 103.519 177.834 102.893C178.375 102.251 178.543 101.552 178.34 100.795C178.191 100.238 177.886 99.8397 177.424 99.5991C176.973 99.3388 176.452 99.1885 175.862 99.148C175.287 99.1033 174.481 99.0955 173.445 99.1246C172.146 99.1581 171.078 99.1295 170.242 99.0387C169.421 98.9439 168.66 98.6675 167.958 98.2097C167.266 97.7323 166.782 96.9759 166.505 95.9404C166.273 95.075 166.288 94.2345 166.55 93.4189C166.827 92.5992 167.373 91.8565 168.189 91.1907C169.004 90.525 170.1 90.0078 171.475 89.6393C172.433 89.3825 173.409 89.2535 174.403 89.2524C175.396 89.2512 176.288 89.3934 177.076 89.6789L176.808 91.7385C176.012 91.488 175.199 91.3581 174.368 91.3487C173.533 91.324 172.745 91.411 172.003 91.6098C170.69 91.9617 169.765 92.4663 169.228 93.1235C168.708 93.7765 168.549 94.4817 168.752 95.239C168.901 95.7953 169.208 96.2016 169.675 96.4576C170.137 96.6983 170.665 96.8465 171.26 96.9025C171.866 96.9389 172.669 96.939 173.67 96.9027C174.97 96.8692 176.03 96.8999 176.85 96.9948C177.671 97.0896 178.424 97.368 179.111 97.83C179.814 98.2878 180.302 99.0267 180.575 100.047C180.803 100.897 180.78 101.739 180.507 102.574C180.23 103.394 179.675 104.139 178.845 104.809C178.009 105.463 176.904 105.975 175.529 106.343Z" fill="#1F1F1F"/>
</svg>
