<svg width="384" height="80" viewBox="0 0 384 80" fill="none" xmlns="http://www.w3.org/2000/svg">
<rect x="0.000976562" y="-0.000488281" width="384" height="80" fill="#F7DD80"/>
<path d="M35.3035 51.2555C33.9595 51.2555 32.7115 50.9782 31.5595 50.4235C30.4075 49.8475 29.4795 49.0475 28.7755 48.0235L30.6315 45.8475C31.8688 47.6182 33.4261 48.5035 35.3035 48.5035C36.5621 48.5035 37.5115 48.1195 38.1515 47.3515C38.8128 46.5835 39.1435 45.4528 39.1435 43.9595V31.3835H31.0475V28.5995H42.3115V43.7995C42.3115 46.2742 41.7141 48.1408 40.5195 49.3995C39.3461 50.6368 37.6075 51.2555 35.3035 51.2555ZM64.1897 34.0395V50.9995H61.2777V48.4395C60.6591 49.3142 59.8377 49.9968 58.8137 50.4875C57.8111 50.9568 56.7124 51.1915 55.5177 51.1915C53.2564 51.1915 51.4751 50.5728 50.1737 49.3355C48.8724 48.0768 48.2217 46.2315 48.2217 43.7995V34.0395H51.2937V43.4475C51.2937 45.0902 51.6884 46.3382 52.4777 47.1915C53.2671 48.0235 54.3977 48.4395 55.8697 48.4395C57.4911 48.4395 58.7711 47.9488 59.7097 46.9675C60.6484 45.9862 61.1177 44.5995 61.1177 42.8075V34.0395H64.1897ZM79.094 33.8795C81.2486 33.8795 82.9553 34.5088 84.214 35.7675C85.494 37.0048 86.134 38.8288 86.134 41.2395V50.9995H83.062V41.5915C83.062 39.9488 82.6673 38.7115 81.878 37.8795C81.0886 37.0475 79.958 36.6315 78.486 36.6315C76.822 36.6315 75.51 37.1222 74.55 38.1035C73.59 39.0635 73.11 40.4502 73.11 42.2635V50.9995H70.038V34.0395H72.982V36.5995C73.6006 35.7248 74.4326 35.0528 75.478 34.5835C76.5446 34.1142 77.75 33.8795 79.094 33.8795ZM100.875 33.8795C103.03 33.8795 104.737 34.5088 105.995 35.7675C107.275 37.0048 107.915 38.8288 107.915 41.2395V50.9995H104.843V41.5915C104.843 39.9488 104.449 38.7115 103.659 37.8795C102.87 37.0475 101.739 36.6315 100.267 36.6315C98.6032 36.6315 97.2912 37.1222 96.3312 38.1035C95.3712 39.0635 94.8912 40.4502 94.8912 42.2635V50.9995H91.8192V27.2555H94.8912V36.4395C95.5312 35.6288 96.3632 34.9995 97.3872 34.5515C98.4326 34.1035 99.5952 33.8795 100.875 33.8795ZM120.958 51.1915C119.273 51.1915 117.758 50.8182 116.414 50.0715C115.07 49.3248 114.014 48.3008 113.246 46.9995C112.5 45.6768 112.126 44.1835 112.126 42.5195C112.126 40.8555 112.5 39.3728 113.246 38.0715C114.014 36.7488 115.07 35.7248 116.414 34.9995C117.758 34.2528 119.273 33.8795 120.958 33.8795C122.644 33.8795 124.148 34.2528 125.47 34.9995C126.814 35.7248 127.86 36.7488 128.606 38.0715C129.374 39.3728 129.758 40.8555 129.758 42.5195C129.758 44.1835 129.374 45.6768 128.606 46.9995C127.86 48.3008 126.814 49.3248 125.47 50.0715C124.148 50.8182 122.644 51.1915 120.958 51.1915ZM120.958 48.5035C122.046 48.5035 123.017 48.2582 123.87 47.7675C124.745 47.2555 125.428 46.5515 125.918 45.6555C126.409 44.7382 126.654 43.6928 126.654 42.5195C126.654 41.3462 126.409 40.3115 125.918 39.4155C125.428 38.4982 124.745 37.7942 123.87 37.3035C123.017 36.8128 122.046 36.5675 120.958 36.5675C119.87 36.5675 118.889 36.8128 118.014 37.3035C117.161 37.7942 116.478 38.4982 115.966 39.4155C115.476 40.3115 115.23 41.3462 115.23 42.5195C115.23 43.6928 115.476 44.7382 115.966 45.6555C116.478 46.5515 117.161 47.2555 118.014 47.7675C118.889 48.2582 119.87 48.5035 120.958 48.5035ZM148.168 28.5995V50.9995H145V31.3835H139.944V28.5995H148.168ZM161.644 38.0075C163.842 38.2208 165.516 38.9035 166.668 40.0555C167.82 41.1862 168.396 42.6368 168.396 44.4075C168.396 45.6875 168.076 46.8502 167.436 47.8955C166.796 48.9195 165.836 49.7408 164.556 50.3595C163.298 50.9568 161.751 51.2555 159.916 51.2555C158.316 51.2555 156.78 51.0208 155.308 50.5515C153.836 50.0608 152.631 49.3888 151.692 48.5355L153.164 46.0075C153.932 46.7328 154.914 47.3195 156.108 47.7675C157.303 48.1942 158.572 48.4075 159.916 48.4075C161.58 48.4075 162.871 48.0555 163.788 47.3515C164.727 46.6475 165.196 45.6768 165.196 44.4395C165.196 43.2022 164.738 42.2422 163.82 41.5595C162.903 40.8768 161.516 40.5355 159.66 40.5355H157.868V38.2955L163.5 31.3835H152.716V28.5995H167.5V30.7755L161.644 38.0075ZM178.438 41.1435H210.438V43.2875H178.438V41.1435ZM225.272 51.2555C223.928 51.2555 222.68 50.9782 221.528 50.4235C220.376 49.8475 219.448 49.0475 218.744 48.0235L220.6 45.8475C221.838 47.6182 223.395 48.5035 225.272 48.5035C226.531 48.5035 227.48 48.1195 228.12 47.3515C228.782 46.5835 229.112 45.4528 229.112 43.9595V31.3835H221.016V28.5995H232.28V43.7995C232.28 46.2742 231.683 48.1408 230.488 49.3995C229.315 50.6368 227.576 51.2555 225.272 51.2555ZM254.158 34.0395V50.9995H251.246V48.4395C250.628 49.3142 249.806 49.9968 248.782 50.4875C247.78 50.9568 246.681 51.1915 245.486 51.1915C243.225 51.1915 241.444 50.5728 240.142 49.3355C238.841 48.0768 238.19 46.2315 238.19 43.7995V34.0395H241.262V43.4475C241.262 45.0902 241.657 46.3382 242.446 47.1915C243.236 48.0235 244.366 48.4395 245.838 48.4395C247.46 48.4395 248.74 47.9488 249.678 46.9675C250.617 45.9862 251.086 44.5995 251.086 42.8075V34.0395H254.158ZM260.007 27.2555H263.079V50.9995H260.007V27.2555ZM278 33.8795C280.155 33.8795 281.862 34.5088 283.12 35.7675C284.4 37.0048 285.04 38.8288 285.04 41.2395V50.9995H281.968V41.5915C281.968 39.9488 281.574 38.7115 280.784 37.8795C279.995 37.0475 278.864 36.6315 277.392 36.6315C275.728 36.6315 274.416 37.1222 273.456 38.1035C272.496 39.0635 272.016 40.4502 272.016 42.2635V50.9995H268.944V27.2555H272.016V36.4395C272.656 35.6288 273.488 34.9995 274.512 34.5515C275.558 34.1035 276.72 33.8795 278 33.8795ZM298.083 51.1915C296.398 51.1915 294.883 50.8182 293.539 50.0715C292.195 49.3248 291.139 48.3008 290.371 46.9995C289.625 45.6768 289.251 44.1835 289.251 42.5195C289.251 40.8555 289.625 39.3728 290.371 38.0715C291.139 36.7488 292.195 35.7248 293.539 34.9995C294.883 34.2528 296.398 33.8795 298.083 33.8795C299.769 33.8795 301.273 34.2528 302.595 34.9995C303.939 35.7248 304.985 36.7488 305.731 38.0715C306.499 39.3728 306.883 40.8555 306.883 42.5195C306.883 44.1835 306.499 45.6768 305.731 46.9995C304.985 48.3008 303.939 49.3248 302.595 50.0715C301.273 50.8182 299.769 51.1915 298.083 51.1915ZM298.083 48.5035C299.171 48.5035 300.142 48.2582 300.995 47.7675C301.87 47.2555 302.553 46.5515 303.043 45.6555C303.534 44.7382 303.779 43.6928 303.779 42.5195C303.779 41.3462 303.534 40.3115 303.043 39.4155C302.553 38.4982 301.87 37.7942 300.995 37.3035C300.142 36.8128 299.171 36.5675 298.083 36.5675C296.995 36.5675 296.014 36.8128 295.139 37.3035C294.286 37.7942 293.603 38.4982 293.091 39.4155C292.601 40.3115 292.355 41.3462 292.355 42.5195C292.355 43.6928 292.601 44.7382 293.091 45.6555C293.603 46.5515 294.286 47.2555 295.139 47.7675C296.014 48.2582 296.995 48.5035 298.083 48.5035ZM334.093 48.2155V50.9995H317.997V48.8235L327.117 40.0235C328.227 38.9568 328.973 38.0395 329.357 37.2715C329.741 36.4822 329.933 35.6928 329.933 34.9035C329.933 33.7302 329.517 32.8235 328.685 32.1835C327.875 31.5222 326.701 31.1915 325.165 31.1915C322.691 31.1915 320.781 32.0022 319.437 33.6235L317.261 31.7355C318.136 30.6688 319.277 29.8368 320.685 29.2395C322.115 28.6422 323.704 28.3435 325.453 28.3435C327.8 28.3435 329.667 28.9088 331.053 30.0395C332.44 31.1488 333.133 32.6635 333.133 34.5835C333.133 35.7782 332.877 36.9088 332.365 37.9755C331.853 39.0422 330.883 40.2582 329.453 41.6235L322.605 48.2155H334.093ZM343.988 28.3435C346.996 28.3435 349.311 29.3142 350.932 31.2555C352.575 33.1968 353.396 35.9488 353.396 39.5115C353.396 42.0075 352.948 44.1408 352.052 45.9115C351.178 47.6608 349.94 48.9942 348.34 49.9115C346.762 50.8075 344.916 51.2555 342.804 51.2555C341.716 51.2555 340.692 51.1488 339.732 50.9355C338.772 50.7008 337.94 50.3702 337.236 49.9435L338.452 47.4475C339.54 48.1515 340.98 48.5035 342.772 48.5035C345.098 48.5035 346.911 47.7888 348.212 46.3595C349.535 44.9088 350.196 42.8075 350.196 40.0555V39.2555C349.556 40.2155 348.671 40.9515 347.54 41.4635C346.41 41.9542 345.14 42.1995 343.732 42.1995C342.26 42.1995 340.938 41.9222 339.764 41.3675C338.612 40.8128 337.706 40.0235 337.044 38.9995C336.404 37.9542 336.084 36.7595 336.084 35.4155C336.084 34.0075 336.426 32.7702 337.108 31.7035C337.812 30.6368 338.762 29.8155 339.956 29.2395C341.151 28.6422 342.495 28.3435 343.988 28.3435ZM344.276 39.6075C345.279 39.6075 346.175 39.4155 346.964 39.0315C347.754 38.6475 348.362 38.1248 348.788 37.4635C349.236 36.8022 349.46 36.0662 349.46 35.2555C349.46 34.4662 349.247 33.7515 348.82 33.1115C348.415 32.4502 347.807 31.9275 346.996 31.5435C346.207 31.1382 345.247 30.9355 344.116 30.9355C342.644 30.9355 341.45 31.3302 340.532 32.1195C339.636 32.9088 339.188 33.9648 339.188 35.2875C339.188 36.6102 339.647 37.6662 340.564 38.4555C341.482 39.2235 342.719 39.6075 344.276 39.6075Z" fill="#1F1F1F"/>
</svg>
