<svg width="124" height="16" viewBox="0 0 124 16" fill="none" xmlns="http://www.w3.org/2000/svg">
<path d="M0.4 0.999999H5.9C7.82 0.999999 9.41333 1.67333 10.68 3.02C11.96 4.36667 12.6 6.02667 12.6 8C12.6 9.96 11.96 11.62 10.68 12.98C9.41333 14.3267 7.82 15 5.9 15H0.4V0.999999ZM2.7 12.8H5.9C7.22 12.8 8.29333 12.3467 9.12 11.44C9.96 10.5333 10.38 9.38667 10.38 8C10.38 6.61333 9.96 5.46667 9.12 4.56C8.29333 3.65333 7.22 3.2 5.9 3.2H2.7V12.8ZM16.9969 9.02V12.8H23.1969V15H14.6969V0.999999H23.0969V3.2H16.9969V6.84H22.5969V9.02H16.9969ZM29.9623 15.26C28.6157 15.26 27.469 14.96 26.5223 14.36C25.589 13.7467 24.9357 12.9 24.5623 11.82L26.5423 10.66C27.1023 12.2333 28.2623 13.02 30.0223 13.02C30.8757 13.02 31.5223 12.8533 31.9623 12.52C32.4023 12.1867 32.6223 11.74 32.6223 11.18C32.6223 10.62 32.389 10.1867 31.9223 9.88C31.4557 9.57333 30.629 9.24 29.4423 8.88C28.229 8.52 27.249 8.09333 26.5023 7.6C25.5957 6.96 25.1423 6.02 25.1423 4.78C25.1423 3.54 25.5823 2.56 26.4623 1.84C27.329 1.10667 28.389 0.739999 29.6423 0.739999C30.749 0.739999 31.7223 1.01333 32.5623 1.56C33.4157 2.09333 34.069 2.84667 34.5223 3.82L32.5823 4.94C31.9957 3.63333 31.0157 2.98 29.6423 2.98C28.9757 2.98 28.4423 3.14 28.0423 3.46C27.6423 3.76667 27.4423 4.18667 27.4423 4.72C27.4423 5.24 27.6423 5.65333 28.0423 5.96C28.4423 6.25333 29.1823 6.56667 30.2623 6.9C30.929 7.12667 31.3157 7.26 31.4223 7.3C31.5957 7.35333 31.9423 7.48667 32.4623 7.7C32.889 7.87333 33.229 8.06 33.4823 8.26C34.5223 9.07333 35.0023 10.0333 34.9223 11.14C34.9223 12.4067 34.4623 13.4133 33.5423 14.16C32.649 14.8933 31.4557 15.26 29.9623 15.26ZM36.8063 15V0.999999H39.1063V15H36.8063ZM48.5239 7.76H55.5239V8.72C55.5239 10.64 54.8906 12.2133 53.6239 13.44C52.3706 14.6533 50.7172 15.26 48.6639 15.26C46.5039 15.26 44.7172 14.56 43.3039 13.16C41.9039 11.76 41.2039 10.04 41.2039 8C41.2039 5.97333 41.9039 4.26 43.3039 2.86C44.7172 1.44667 46.4639 0.739999 48.5439 0.739999C49.8372 0.739999 51.0239 1.04 52.1039 1.64C53.1972 2.22667 54.0439 3.03333 54.6439 4.06L52.6639 5.2C52.2906 4.52 51.7372 3.98 51.0039 3.58C50.2706 3.18 49.4506 2.98 48.5439 2.98C47.0772 2.98 45.8706 3.46 44.9239 4.42C43.9772 5.39333 43.5039 6.59333 43.5039 8.02C43.5039 9.46 43.9772 10.6533 44.9239 11.6C45.8972 12.5467 47.1506 13.02 48.6839 13.02C49.9106 13.02 50.9172 12.7333 51.7039 12.16C52.4906 11.5867 52.9906 10.8067 53.2039 9.82H48.5239V7.76ZM66.0266 10.5V0.999999H68.3266V15H66.5266L59.9266 5.5V15H57.6266V0.999999H59.4266L66.0266 10.5ZM73.4227 9.02V12.8H79.6227V15H71.1227V0.999999H79.5227V3.2H73.4227V6.84H79.0227V9.02H73.4227ZM81.7281 0.999999H87.2281C89.1481 0.999999 90.7415 1.67333 92.0081 3.02C93.2881 4.36667 93.9281 6.02667 93.9281 8C93.9281 9.96 93.2881 11.62 92.0081 12.98C90.7415 14.3267 89.1481 15 87.2281 15H81.7281V0.999999ZM84.0281 12.8H87.2281C88.5481 12.8 89.6215 12.3467 90.4481 11.44C91.2881 10.5333 91.7081 9.38667 91.7081 8C91.7081 6.61333 91.2881 5.46667 90.4481 4.56C89.6215 3.65333 88.5481 3.2 87.2281 3.2H84.0281V12.8ZM109.265 7.74C109.878 8.06 110.358 8.50667 110.705 9.08C111.052 9.64 111.225 10.28 111.225 11C111.225 12.1467 110.818 13.1 110.005 13.86C109.192 14.62 108.198 15 107.025 15H101.025V0.999999H106.585C107.732 0.999999 108.698 1.37333 109.485 2.12C110.285 2.86667 110.685 3.78667 110.685 4.88C110.685 6.08 110.212 7.03333 109.265 7.74ZM106.585 3.16H103.325V6.84H106.585C107.092 6.84 107.518 6.66667 107.865 6.32C108.212 5.96 108.385 5.52 108.385 5C108.385 4.48 108.212 4.04667 107.865 3.7C107.518 3.34 107.092 3.16 106.585 3.16ZM103.325 12.84H107.025C107.558 12.84 108.005 12.6533 108.365 12.28C108.738 11.8933 108.925 11.4267 108.925 10.88C108.925 10.3333 108.738 9.87333 108.365 9.5C108.005 9.11333 107.558 8.92 107.025 8.92H103.325V12.84ZM120.747 0.999999H123.367L118.487 9.44V15H116.187V9.44L111.307 0.999999H113.927L117.347 7.2L120.747 0.999999Z" fill="#1F1F1F"/>
</svg>
