<svg width="119" height="40" viewBox="0 0 119 40" fill="none" xmlns="http://www.w3.org/2000/svg">
<rect width="119" height="40" rx="2" fill="white" fill-opacity="0.5"/>
<path d="M20.4 27.2C18.9867 27.2 17.7067 26.8933 16.56 26.28C15.4267 25.6533 14.5333 24.7933 13.88 23.7C13.24 22.6067 12.92 21.3733 12.92 20C12.92 18.6267 13.2467 17.3933 13.9 16.3C14.5533 15.2067 15.4467 14.3533 16.58 13.74C17.7267 13.1133 19.0067 12.8 20.42 12.8C21.5667 12.8 22.6133 13 23.56 13.4C24.5067 13.8 25.3067 14.38 25.96 15.14L24.28 16.72C23.2667 15.6267 22.02 15.08 20.54 15.08C19.58 15.08 18.72 15.2933 17.96 15.72C17.2 16.1333 16.6067 16.7133 16.18 17.46C15.7533 18.2067 15.54 19.0533 15.54 20C15.54 20.9467 15.7533 21.7933 16.18 22.54C16.6067 23.2867 17.2 23.8733 17.96 24.3C18.72 24.7133 19.58 24.92 20.54 24.92C22.02 24.92 23.2667 24.3667 24.28 23.26L25.96 24.86C25.3067 25.62 24.5 26.2 23.54 26.6C22.5933 27 21.5467 27.2 20.4 27.2ZM32.4634 27.14C31.3834 27.14 30.4101 26.9067 29.5434 26.44C28.6768 25.9733 27.9968 25.3267 27.5034 24.5C27.0234 23.66 26.7834 22.7133 26.7834 21.66C26.7834 20.6067 27.0234 19.6667 27.5034 18.84C27.9968 18.0133 28.6768 17.3667 29.5434 16.9C30.4101 16.4333 31.3834 16.2 32.4634 16.2C33.5568 16.2 34.5368 16.4333 35.4034 16.9C36.2701 17.3667 36.9434 18.0133 37.4234 18.84C37.9168 19.6667 38.1634 20.6067 38.1634 21.66C38.1634 22.7133 37.9168 23.66 37.4234 24.5C36.9434 25.3267 36.2701 25.9733 35.4034 26.44C34.5368 26.9067 33.5568 27.14 32.4634 27.14ZM32.4634 25C33.3834 25 34.1434 24.6933 34.7434 24.08C35.3434 23.4667 35.6434 22.66 35.6434 21.66C35.6434 20.66 35.3434 19.8533 34.7434 19.24C34.1434 18.6267 33.3834 18.32 32.4634 18.32C31.5434 18.32 30.7834 18.6267 30.1834 19.24C29.5968 19.8533 29.3034 20.66 29.3034 21.66C29.3034 22.66 29.5968 23.4667 30.1834 24.08C30.7834 24.6933 31.5434 25 32.4634 25ZM46.6141 16.2C47.9607 16.2 49.0407 16.5933 49.8541 17.38C50.6674 18.1667 51.0741 19.3333 51.0741 20.88V27H48.5741V21.2C48.5741 20.2667 48.3541 19.5667 47.9141 19.1C47.4741 18.62 46.8474 18.38 46.0341 18.38C45.1141 18.38 44.3874 18.66 43.8541 19.22C43.3207 19.7667 43.0541 20.56 43.0541 21.6V27H40.5541V16.32H42.9341V17.7C43.3474 17.2067 43.8674 16.8333 44.4941 16.58C45.1207 16.3267 45.8274 16.2 46.6141 16.2ZM59.2431 27.14C58.1365 27.14 57.1431 26.9067 56.2631 26.44C55.3831 25.9733 54.6965 25.3267 54.2031 24.5C53.7098 23.66 53.4631 22.7133 53.4631 21.66C53.4631 20.6067 53.7098 19.6667 54.2031 18.84C54.6965 18.0133 55.3765 17.3667 56.2431 16.9C57.1231 16.4333 58.1231 16.2 59.2431 16.2C60.2965 16.2 61.2165 16.4133 62.0031 16.84C62.8031 17.2667 63.4031 17.88 63.8031 18.68L61.8831 19.8C61.5765 19.3067 61.1898 18.94 60.7231 18.7C60.2698 18.4467 59.7698 18.32 59.2231 18.32C58.2898 18.32 57.5165 18.6267 56.9031 19.24C56.2898 19.84 55.9831 20.6467 55.9831 21.66C55.9831 22.6733 56.2831 23.4867 56.8831 24.1C57.4965 24.7 58.2765 25 59.2231 25C59.7698 25 60.2698 24.88 60.7231 24.64C61.1898 24.3867 61.5765 24.0133 61.8831 23.52L63.8031 24.64C63.3898 25.44 62.7831 26.06 61.9831 26.5C61.1965 26.9267 60.2831 27.14 59.2431 27.14ZM75.848 21.72C75.848 21.8933 75.8346 22.14 75.808 22.46H67.428C67.5746 23.2467 67.9546 23.8733 68.568 24.34C69.1946 24.7933 69.968 25.02 70.888 25.02C72.0613 25.02 73.028 24.6333 73.788 23.86L75.128 25.4C74.648 25.9733 74.0413 26.4067 73.308 26.7C72.5746 26.9933 71.748 27.14 70.828 27.14C69.6546 27.14 68.6213 26.9067 67.728 26.44C66.8346 25.9733 66.1413 25.3267 65.648 24.5C65.168 23.66 64.928 22.7133 64.928 21.66C64.928 20.62 65.1613 19.6867 65.628 18.86C66.108 18.02 66.768 17.3667 67.608 16.9C68.448 16.4333 69.3946 16.2 70.448 16.2C71.488 16.2 72.4146 16.4333 73.228 16.9C74.0546 17.3533 74.6946 18 75.148 18.84C75.6146 19.6667 75.848 20.6267 75.848 21.72ZM70.448 18.2C69.648 18.2 68.968 18.44 68.408 18.92C67.8613 19.3867 67.528 20.0133 67.408 20.8H73.468C73.3613 20.0267 73.0346 19.4 72.488 18.92C71.9413 18.44 71.2613 18.2 70.448 18.2ZM80.6294 17.88C81.3494 16.76 82.616 16.2 84.4294 16.2V18.58C84.216 18.54 84.0227 18.52 83.8494 18.52C82.876 18.52 82.116 18.8067 81.5694 19.38C81.0227 19.94 80.7494 20.7533 80.7494 21.82V27H78.2494V16.32H80.6294V17.88ZM93.3608 26.42C93.0674 26.66 92.7074 26.84 92.2808 26.96C91.8674 27.08 91.4274 27.14 90.9608 27.14C89.7874 27.14 88.8808 26.8333 88.2408 26.22C87.6008 25.6067 87.2808 24.7133 87.2808 23.54V18.4H85.5208V16.4H87.2808V13.96H89.7808V16.4H92.6408V18.4H89.7808V23.48C89.7808 24 89.9074 24.4 90.1608 24.68C90.4141 24.9467 90.7808 25.08 91.2608 25.08C91.8208 25.08 92.2874 24.9333 92.6608 24.64L93.3608 26.42ZM99.8658 27.14C98.7858 27.14 97.8124 26.9067 96.9458 26.44C96.0791 25.9733 95.3991 25.3267 94.9058 24.5C94.4258 23.66 94.1858 22.7133 94.1858 21.66C94.1858 20.6067 94.4258 19.6667 94.9058 18.84C95.3991 18.0133 96.0791 17.3667 96.9458 16.9C97.8124 16.4333 98.7858 16.2 99.8658 16.2C100.959 16.2 101.939 16.4333 102.806 16.9C103.672 17.3667 104.346 18.0133 104.826 18.84C105.319 19.6667 105.566 20.6067 105.566 21.66C105.566 22.7133 105.319 23.66 104.826 24.5C104.346 25.3267 103.672 25.9733 102.806 26.44C101.939 26.9067 100.959 27.14 99.8658 27.14ZM99.8658 25C100.786 25 101.546 24.6933 102.146 24.08C102.746 23.4667 103.046 22.66 103.046 21.66C103.046 20.66 102.746 19.8533 102.146 19.24C101.546 18.6267 100.786 18.32 99.8658 18.32C98.9458 18.32 98.1858 18.6267 97.5858 19.24C96.9991 19.8533 96.7058 20.66 96.7058 21.66C96.7058 22.66 96.9991 23.4667 97.5858 24.08C98.1858 24.6933 98.9458 25 99.8658 25Z" fill="white"/>
</svg>
