<svg width="124" height="40" viewBox="0 0 124 40" fill="none" xmlns="http://www.w3.org/2000/svg">
<rect width="124" height="40" rx="2" fill="white" fill-opacity="0.5"/>
<path d="M20.36 27.2C18.9467 27.2 17.6667 26.8933 16.52 26.28C15.3867 25.6533 14.4933 24.7933 13.84 23.7C13.2 22.6067 12.88 21.3733 12.88 20C12.88 18.6267 13.2067 17.3933 13.86 16.3C14.5133 15.2067 15.4067 14.3533 16.54 13.74C17.6867 13.1133 18.9667 12.8 20.38 12.8C21.5267 12.8 22.5733 13 23.52 13.4C24.4667 13.8 25.2667 14.38 25.92 15.14L24.24 16.72C23.2267 15.6267 21.98 15.08 20.5 15.08C19.54 15.08 18.68 15.2933 17.92 15.72C17.16 16.1333 16.5667 16.7133 16.14 17.46C15.7133 18.2067 15.5 19.0533 15.5 20C15.5 20.9467 15.7133 21.7933 16.14 22.54C16.5667 23.2867 17.16 23.8733 17.92 24.3C18.68 24.7133 19.54 24.92 20.5 24.92C21.98 24.92 23.2267 24.3667 24.24 23.26L25.92 24.86C25.2667 25.62 24.46 26.2 23.5 26.6C22.5533 27 21.5067 27.2 20.36 27.2ZM32.5806 27.14C31.5006 27.14 30.5273 26.9067 29.6606 26.44C28.794 25.9733 28.114 25.3267 27.6206 24.5C27.1406 23.66 26.9006 22.7133 26.9006 21.66C26.9006 20.6067 27.1406 19.6667 27.6206 18.84C28.114 18.0133 28.794 17.3667 29.6606 16.9C30.5273 16.4333 31.5006 16.2 32.5806 16.2C33.674 16.2 34.654 16.4333 35.5206 16.9C36.3873 17.3667 37.0606 18.0133 37.5406 18.84C38.034 19.6667 38.2806 20.6067 38.2806 21.66C38.2806 22.7133 38.034 23.66 37.5406 24.5C37.0606 25.3267 36.3873 25.9733 35.5206 26.44C34.654 26.9067 33.674 27.14 32.5806 27.14ZM32.5806 25C33.5006 25 34.2606 24.6933 34.8606 24.08C35.4606 23.4667 35.7606 22.66 35.7606 21.66C35.7606 20.66 35.4606 19.8533 34.8606 19.24C34.2606 18.6267 33.5006 18.32 32.5806 18.32C31.6606 18.32 30.9006 18.6267 30.3006 19.24C29.714 19.8533 29.4206 20.66 29.4206 21.66C29.4206 22.66 29.714 23.4667 30.3006 24.08C30.9006 24.6933 31.6606 25 32.5806 25ZM46.7313 16.2C48.0779 16.2 49.1579 16.5933 49.9713 17.38C50.7846 18.1667 51.1913 19.3333 51.1913 20.88V27H48.6913V21.2C48.6913 20.2667 48.4713 19.5667 48.0313 19.1C47.5913 18.62 46.9646 18.38 46.1513 18.38C45.2313 18.38 44.5046 18.66 43.9713 19.22C43.4379 19.7667 43.1713 20.56 43.1713 21.6V27H40.6713V16.32H43.0513V17.7C43.4646 17.2067 43.9846 16.8333 44.6113 16.58C45.2379 16.3267 45.9446 16.2 46.7313 16.2ZM60.4227 16.2C61.7693 16.2 62.8493 16.5933 63.6627 17.38C64.476 18.1667 64.8827 19.3333 64.8827 20.88V27H62.3827V21.2C62.3827 20.2667 62.1627 19.5667 61.7227 19.1C61.2827 18.62 60.656 18.38 59.8427 18.38C58.9227 18.38 58.196 18.66 57.6627 19.22C57.1293 19.7667 56.8627 20.56 56.8627 21.6V27H54.3627V12.16H56.8627V17.56C57.276 17.12 57.7827 16.7867 58.3827 16.56C58.996 16.32 59.676 16.2 60.4227 16.2ZM78.1917 21.72C78.1917 21.8933 78.1784 22.14 78.1517 22.46H69.7717C69.9184 23.2467 70.2984 23.8733 70.9117 24.34C71.5384 24.7933 72.3117 25.02 73.2317 25.02C74.4051 25.02 75.3717 24.6333 76.1317 23.86L77.4717 25.4C76.9917 25.9733 76.3851 26.4067 75.6517 26.7C74.9184 26.9933 74.0917 27.14 73.1717 27.14C71.9984 27.14 70.9651 26.9067 70.0717 26.44C69.1784 25.9733 68.4851 25.3267 67.9917 24.5C67.5117 23.66 67.2717 22.7133 67.2717 21.66C67.2717 20.62 67.5051 19.6867 67.9717 18.86C68.4517 18.02 69.1117 17.3667 69.9517 16.9C70.7917 16.4333 71.7384 16.2 72.7917 16.2C73.8317 16.2 74.7584 16.4333 75.5717 16.9C76.3984 17.3533 77.0384 18 77.4917 18.84C77.9584 19.6667 78.1917 20.6267 78.1917 21.72ZM72.7917 18.2C71.9917 18.2 71.3117 18.44 70.7517 18.92C70.2051 19.3867 69.8717 20.0133 69.7517 20.8H75.8117C75.7051 20.0267 75.3784 19.4 74.8317 18.92C74.2851 18.44 73.6051 18.2 72.7917 18.2ZM85.4931 27.14C84.3865 27.14 83.3931 26.9067 82.5131 26.44C81.6331 25.9733 80.9465 25.3267 80.4531 24.5C79.9598 23.66 79.7131 22.7133 79.7131 21.66C79.7131 20.6067 79.9598 19.6667 80.4531 18.84C80.9465 18.0133 81.6265 17.3667 82.4931 16.9C83.3731 16.4333 84.3731 16.2 85.4931 16.2C86.5465 16.2 87.4665 16.4133 88.2531 16.84C89.0531 17.2667 89.6531 17.88 90.0531 18.68L88.1331 19.8C87.8265 19.3067 87.4398 18.94 86.9731 18.7C86.5198 18.4467 86.0198 18.32 85.4731 18.32C84.5398 18.32 83.7665 18.6267 83.1531 19.24C82.5398 19.84 82.2331 20.6467 82.2331 21.66C82.2331 22.6733 82.5331 23.4867 83.1331 24.1C83.7465 24.7 84.5265 25 85.4731 25C86.0198 25 86.5198 24.88 86.9731 24.64C87.4398 24.3867 87.8265 24.0133 88.1331 23.52L90.0531 24.64C89.6398 25.44 89.0331 26.06 88.2331 26.5C87.4465 26.9267 86.5331 27.14 85.4931 27.14ZM102.098 21.72C102.098 21.8933 102.085 22.14 102.058 22.46H93.678C93.8246 23.2467 94.2046 23.8733 94.818 24.34C95.4446 24.7933 96.218 25.02 97.138 25.02C98.3113 25.02 99.278 24.6333 100.038 23.86L101.378 25.4C100.898 25.9733 100.291 26.4067 99.558 26.7C98.8246 26.9933 97.998 27.14 97.078 27.14C95.9046 27.14 94.8713 26.9067 93.978 26.44C93.0846 25.9733 92.3913 25.3267 91.898 24.5C91.418 23.66 91.178 22.7133 91.178 21.66C91.178 20.62 91.4113 19.6867 91.878 18.86C92.358 18.02 93.018 17.3667 93.858 16.9C94.698 16.4333 95.6446 16.2 96.698 16.2C97.738 16.2 98.6646 16.4333 99.478 16.9C100.305 17.3533 100.945 18 101.398 18.84C101.865 19.6667 102.098 20.6267 102.098 21.72ZM96.698 18.2C95.898 18.2 95.218 18.44 94.658 18.92C94.1113 19.3867 93.778 20.0133 93.658 20.8H99.718C99.6113 20.0267 99.2846 19.4 98.738 18.92C98.1913 18.44 97.5113 18.2 96.698 18.2ZM106.879 17.88C107.599 16.76 108.866 16.2 110.679 16.2V18.58C110.466 18.54 110.273 18.52 110.099 18.52C109.126 18.52 108.366 18.8067 107.819 19.38C107.273 19.94 106.999 20.7533 106.999 21.82V27H104.499V16.32H106.879V17.88Z" fill="white"/>
</svg>
