<svg width="85" height="40" viewBox="0 0 85 40" fill="none" xmlns="http://www.w3.org/2000/svg">
<rect width="85" height="40" rx="2" fill="white" fill-opacity="0.5"/>
<path d="M16.06 27.2C15.1667 27.2 14.34 27.0267 13.58 26.68C12.8333 26.32 12.22 25.82 11.74 25.18L13.22 23.4C13.9933 24.4667 14.92 25 16 25C17.4533 25 18.18 24.14 18.18 22.42V15.18H13.2V13H20.78V22.28C20.78 23.92 20.38 25.1533 19.58 25.98C18.78 26.7933 17.6067 27.2 16.06 27.2ZM28.9869 27.14C27.9069 27.14 26.9335 26.9067 26.0669 26.44C25.2002 25.9733 24.5202 25.3267 24.0269 24.5C23.5469 23.66 23.3069 22.7133 23.3069 21.66C23.3069 20.6067 23.5469 19.6667 24.0269 18.84C24.5202 18.0133 25.2002 17.3667 26.0669 16.9C26.9335 16.4333 27.9069 16.2 28.9869 16.2C30.0802 16.2 31.0602 16.4333 31.9269 16.9C32.7935 17.3667 33.4669 18.0133 33.9469 18.84C34.4402 19.6667 34.6869 20.6067 34.6869 21.66C34.6869 22.7133 34.4402 23.66 33.9469 24.5C33.4669 25.3267 32.7935 25.9733 31.9269 26.44C31.0602 26.9067 30.0802 27.14 28.9869 27.14ZM28.9869 25C29.9069 25 30.6669 24.6933 31.2669 24.08C31.8669 23.4667 32.1669 22.66 32.1669 21.66C32.1669 20.66 31.8669 19.8533 31.2669 19.24C30.6669 18.6267 29.9069 18.32 28.9869 18.32C28.0669 18.32 27.3069 18.6267 26.7069 19.24C26.1202 19.8533 25.8269 20.66 25.8269 21.66C25.8269 22.66 26.1202 23.4667 26.7069 24.08C27.3069 24.6933 28.0669 25 28.9869 25ZM47.6775 16.32V25.38C47.6775 29.14 45.7575 31.02 41.9175 31.02C40.8908 31.02 39.9175 30.8867 38.9975 30.62C38.0775 30.3667 37.3175 29.9933 36.7175 29.5L37.8375 27.62C38.3042 28.0067 38.8908 28.3133 39.5975 28.54C40.3175 28.78 41.0442 28.9 41.7775 28.9C42.9508 28.9 43.8108 28.6333 44.3575 28.1C44.9042 27.5667 45.1775 26.7533 45.1775 25.66V25.1C44.7508 25.5667 44.2308 25.92 43.6175 26.16C43.0042 26.4 42.3308 26.52 41.5975 26.52C40.5842 26.52 39.6642 26.3067 38.8375 25.88C38.0242 25.44 37.3775 24.8267 36.8975 24.04C36.4308 23.2533 36.1975 22.3533 36.1975 21.34C36.1975 20.3267 36.4308 19.4333 36.8975 18.66C37.3775 17.8733 38.0242 17.2667 38.8375 16.84C39.6642 16.4133 40.5842 16.2 41.5975 16.2C42.3708 16.2 43.0708 16.3267 43.6975 16.58C44.3375 16.8333 44.8708 17.22 45.2975 17.74V16.32H47.6775ZM41.9775 24.4C42.9242 24.4 43.6975 24.12 44.2975 23.56C44.9108 22.9867 45.2175 22.2467 45.2175 21.34C45.2175 20.4467 44.9108 19.72 44.2975 19.16C43.6975 18.6 42.9242 18.32 41.9775 18.32C41.0175 18.32 40.2308 18.6 39.6175 19.16C39.0175 19.72 38.7175 20.4467 38.7175 21.34C38.7175 22.2467 39.0175 22.9867 39.6175 23.56C40.2308 24.12 41.0175 24.4 41.9775 24.4ZM55.7642 27.14C54.6842 27.14 53.7109 26.9067 52.8442 26.44C51.9776 25.9733 51.2976 25.3267 50.8042 24.5C50.3242 23.66 50.0842 22.7133 50.0842 21.66C50.0842 20.6067 50.3242 19.6667 50.8042 18.84C51.2976 18.0133 51.9776 17.3667 52.8442 16.9C53.7109 16.4333 54.6842 16.2 55.7642 16.2C56.8576 16.2 57.8376 16.4333 58.7042 16.9C59.5709 17.3667 60.2442 18.0133 60.7242 18.84C61.2176 19.6667 61.4642 20.6067 61.4642 21.66C61.4642 22.7133 61.2176 23.66 60.7242 24.5C60.2442 25.3267 59.5709 25.9733 58.7042 26.44C57.8376 26.9067 56.8576 27.14 55.7642 27.14ZM55.7642 25C56.6842 25 57.4442 24.6933 58.0442 24.08C58.6442 23.4667 58.9442 22.66 58.9442 21.66C58.9442 20.66 58.6442 19.8533 58.0442 19.24C57.4442 18.6267 56.6842 18.32 55.7642 18.32C54.8442 18.32 54.0842 18.6267 53.4842 19.24C52.8976 19.8533 52.6042 20.66 52.6042 21.66C52.6042 22.66 52.8976 23.4667 53.4842 24.08C54.0842 24.6933 54.8442 25 55.7642 25ZM67.1548 27.14C66.2882 27.14 65.4415 27.0267 64.6148 26.8C63.7882 26.5733 63.1282 26.2867 62.6348 25.94L63.5948 24.04C64.0748 24.36 64.6482 24.62 65.3148 24.82C65.9948 25.0067 66.6615 25.1 67.3148 25.1C68.8082 25.1 69.5548 24.7067 69.5548 23.92C69.5548 23.5467 69.3615 23.2867 68.9748 23.14C68.6015 22.9933 67.9948 22.8533 67.1548 22.72C66.2748 22.5867 65.5548 22.4333 64.9948 22.26C64.4482 22.0867 63.9682 21.7867 63.5548 21.36C63.1548 20.92 62.9548 20.3133 62.9548 19.54C62.9548 18.5267 63.3748 17.72 64.2148 17.12C65.0682 16.5067 66.2148 16.2 67.6548 16.2C68.3882 16.2 69.1215 16.2867 69.8548 16.46C70.5882 16.62 71.1882 16.84 71.6548 17.12L70.6948 19.02C69.7882 18.4867 68.7682 18.22 67.6348 18.22C66.9015 18.22 66.3415 18.3333 65.9548 18.56C65.5815 18.7733 65.3948 19.06 65.3948 19.42C65.3948 19.82 65.5948 20.1067 65.9948 20.28C66.4082 20.44 67.0415 20.5933 67.8948 20.74C68.7482 20.8733 69.4482 21.0267 69.9948 21.2C70.5415 21.3733 71.0082 21.6667 71.3948 22.08C71.7948 22.4933 71.9948 23.08 71.9948 23.84C71.9948 24.84 71.5615 25.64 70.6948 26.24C69.8282 26.84 68.6482 27.14 67.1548 27.14Z" fill="white"/>
</svg>
